<?xml version="1.0" standalone="no"?>
<!DOCTYPE svg PUBLIC "-//W3C//DTD SVG 20010904//EN"
 "http://www.w3.org/TR/2001/REC-SVG-20010904/DTD/svg10.dtd">
<svg version="1.0" xmlns="http://www.w3.org/2000/svg"
 width="800.000000pt" height="800.000000pt" viewBox="0 0 800.000000 800.000000"
 preserveAspectRatio="xMidYMid meet">
<metadata>
Created by potrace 1.11, written by Peter Selinger 2001-2013
</metadata>
<g transform="translate(0.000000,800.000000) scale(0.100000,-0.100000)"
fill="#000000" stroke="none">
<path d="M3798 7855 c-2 -1 -48 -5 -103 -9 -134 -8 -231 -18 -305 -31 -14 -3
-41 -7 -60 -10 -19 -3 -46 -7 -60 -10 -14 -3 -38 -7 -55 -10 -82 -13 -333 -81
-463 -124 -228 -76 -470 -185 -657 -296 -42 -25 -78 -45 -80 -45 -8 0 -201
-132 -290 -198 -292 -218 -616 -540 -831 -827 -242 -322 -432 -683 -556 -1059
-46 -140 -99 -340 -112 -421 -4 -21 -8 -40 -10 -44 -2 -3 -7 -31 -11 -61 -4
-30 -8 -57 -10 -60 -2 -3 -6 -34 -10 -70 -4 -36 -9 -74 -11 -85 -2 -11 -6 -53
-9 -93 -3 -39 -8 -91 -11 -115 -5 -51 -6 -520 0 -562 2 -16 7 -68 11 -115 9
-99 11 -118 19 -185 7 -48 10 -68 21 -125 3 -14 7 -38 10 -55 4 -24 24 -120
30 -145 1 -3 5 -21 9 -40 22 -97 112 -385 146 -465 7 -16 18 -43 25 -60 231
-570 640 -1107 1183 -1554 131 -108 365 -267 527 -359 339 -191 777 -348 1135
-407 19 -3 58 -10 85 -15 28 -5 75 -12 105 -15 30 -4 66 -8 80 -10 28 -4 132
-13 235 -20 39 -3 94 -7 123 -10 l52 -6 0 1908 0 1908 -741 0 c-569 0 -746 3
-759 12 -43 30 -35 45 152 271 99 119 190 228 202 242 11 14 39 48 61 75 21
28 42 52 45 55 3 3 28 32 55 65 28 33 52 62 55 65 3 3 24 28 46 55 33 41 250
302 838 1010 60 73 83 95 99 95 13 0 39 -22 67 -56 8 -11 98 -120 200 -243
102 -123 210 -254 240 -291 30 -37 105 -128 167 -203 61 -74 118 -144 127
-154 8 -10 39 -47 69 -83 145 -175 417 -504 542 -658 77 -94 145 -170 152
-169 7 1 94 69 193 151 159 131 179 151 167 165 -13 15 -224 274 -257 315 -8
10 -20 23 -25 30 -6 6 -30 36 -55 66 -25 30 -47 57 -50 60 -3 3 -57 68 -120
145 -127 154 -360 436 -393 475 -12 14 -34 42 -49 62 -15 20 -33 42 -40 50 -7
7 -45 51 -83 98 -39 47 -78 94 -87 105 -9 11 -86 104 -170 206 -84 102 -168
204 -187 226 -115 140 -312 213 -490 183 -79 -13 -191 -63 -253 -112 -22 -18
-176 -195 -340 -393 -165 -198 -310 -371 -322 -385 -11 -14 -50 -61 -86 -105
-36 -44 -67 -82 -70 -85 -3 -3 -39 -45 -80 -95 -41 -49 -82 -99 -92 -110 -305
-362 -655 -793 -677 -835 -16 -30 -37 -84 -46 -120 -16 -62 -23 -209 -11 -228
3 -5 8 -23 11 -41 21 -120 160 -291 285 -348 116 -54 128 -55 695 -55 l525 -1
1 -31 c1 -41 1 -2727 0 -2744 -1 -16 -28 -13 -181 19 -328 69 -660 194 -918
346 -41 24 -75 43 -78 43 -4 0 -160 105 -224 150 -237 169 -515 436 -717 689
-257 320 -443 667 -556 1032 -46 146 -58 193 -72 272 -3 15 -12 58 -20 95 -50
239 -72 625 -52 922 56 824 380 1528 976 2120 155 154 187 183 291 265 41 33
77 63 78 68 2 4 10 7 18 7 8 0 14 4 14 8 0 8 224 159 325 219 142 84 386 194
566 253 107 36 332 95 399 105 24 4 47 8 50 10 3 1 32 6 65 10 32 3 62 8 65
10 5 3 52 8 185 22 158 16 623 8 775 -13 142 -20 293 -48 397 -74 132 -32 392
-116 408 -131 5 -5 15 -9 22 -9 19 0 270 -121 367 -177 152 -87 364 -234 480
-333 376 -320 671 -678 875 -1065 115 -217 234 -536 275 -735 3 -14 8 -36 11
-50 3 -14 12 -61 20 -105 8 -44 17 -90 20 -103 2 -13 7 -50 10 -83 4 -33 8
-70 10 -81 17 -88 24 -482 11 -658 -12 -174 -48 -415 -80 -545 -2 -5 -6 -23
-10 -40 -111 -439 -320 -858 -606 -1215 -201 -252 -502 -539 -735 -701 -49
-35 -74 -58 -70 -67 10 -26 255 -392 263 -392 12 0 171 117 297 219 125 101
397 364 507 491 157 182 290 363 403 550 54 88 184 338 212 406 137 329 221
610 259 859 12 79 26 172 29 195 2 14 7 61 10 105 4 44 9 96 11 115 6 54 6
521 0 560 -3 19 -8 73 -11 120 -3 47 -7 94 -9 106 -2 12 -7 45 -11 74 -4 29
-9 62 -11 74 -2 12 -7 37 -10 56 -80 484 -278 981 -558 1400 -154 232 -277
381 -505 613 -523 532 -1146 883 -1848 1041 -60 13 -126 27 -148 30 -22 4 -65
11 -95 16 -30 5 -73 11 -95 14 -76 10 -150 18 -195 22 -53 5 -547 13 -552 9z"/>
</g>
</svg>
